# xmcd
#
# Track frame offsets: 
#        150
#        21317
#        25940
#        43297
#        72107
#        97267
#        117322
#        136617
#        162125
#        191080
#        210020
#        233937
#        288842
#        309907
#        332410
#
# Disc length: 4684 seconds
#
# Revision: 4
# Processed by: cddbd v1.5.2PL0 Copyright (c) Steve Scherf et al.
# Submitted via: ExactAudioCopy v0.99pb5
#
DISCID=c9124a0f
DTITLE=Little Feat - Waiting For Columbus [Deluxe Edition] Disc2
DYEAR=2002
DGENRE=Rock
TTITLE0=Willin'
TTITLE1=Don't Bogart That Joint
TTITLE2=A Apolitical Blues
TTITLE3=Sailin' Shoes
TTITLE4=Feats Don't Fail Me Now
TTITLE5=One Love Stand [previously unissued outtake]
TTITLE6=Rock And Roll Doctor [previously unissued outtake]
TTITLE7=Skin It Back [previously unissued outtake]
TTITLE8=On Your Way Down [previously unissued outtake]
TTITLE9=Walkin All Night [previously unissued outtake]
TTITLE10=Cold, Cold, Cold [previously unissued outtake]
TTITLE11=Day At The Dog Races [previously unissued outtake]
TTITLE12=Skin It Back [outtake first issued on Hoy-Hoy!]
TTITLE13=Red Streamliner [outtake first issued on Hoy-Hoy!]
TTITLE14=Teenage Nervous Breakdown [outtake first issued on Hoy-Hoy!]
EXTD=YEAR: 2002
EXTT0=
EXTT1=
EXTT2=
EXTT3=
EXTT4=
EXTT5=
EXTT6=
EXTT7=
EXTT8=
EXTT9=
EXTT10=
EXTT11=
EXTT12=
EXTT13=
EXTT14=
PLAYORDER=
